<svg xmlns="http://www.w3.org/2000/svg" xmlns:xlink="http://www.w3.org/1999/xlink" viewBox="0 0 500 500"><defs><clipPath id="freepik--clip-path--inject-43"><polygon points="212.3 248.17 194.97 248.17 194.97 226.25 206.52 226.25 212.3 232.03 212.3 248.17" style="fill:#008AAA;stroke:#263238;stroke-linecap:round;stroke-linejoin:round"></polygon></clipPath><clipPath id="freepik--clip-path-2--inject-43"><polygon points="212.3 293.17 194.97 293.17 194.97 271.25 206.52 271.25 212.3 277.03 212.3 293.17" style="fill:#008AAA;stroke:#263238;stroke-linecap:round;stroke-linejoin:round"></polygon></clipPath><clipPath id="freepik--clip-path-3--inject-43"><polygon points="224.22 201.27 192.13 201.27 192.13 160.68 213.52 160.68 224.22 171.37 224.22 201.27" style="fill:#008AAA;stroke:#263238;stroke-linecap:round;stroke-linejoin:round"></polygon></clipPath><clipPath id="freepik--clip-path-4--inject-43"><polygon points="212.3 338.18 194.97 338.18 194.97 316.26 206.52 316.26 212.3 322.03 212.3 338.18" style="fill:#008AAA;stroke:#263238;stroke-linecap:round;stroke-linejoin:round"></polygon></clipPath><clipPath id="freepik--clip-path-5--inject-43"><polygon points="385.56 225.8 381.18 224.21 377 228.25 380.06 215.75 383.75 212.85 385.63 214.04 394.03 213.72 400.56 214.25 403.67 213.29 406.99 216.61 399.6 230.74 396.5 225.39 389.66 226.24 385.56 225.8" style="fill:#008AAA;stroke:#263238;stroke-linecap:round;stroke-linejoin:round"></polygon></clipPath><clipPath id="freepik--clip-path-6--inject-43"><path d="M400.11,216.57l-1-15.28L389.45,203l-2,7.18-2,6.22-.95.1,2.63,14.28,13.94-14Z" style="fill:#858585;stroke:#263238;stroke-linecap:round;stroke-linejoin:round"></path></clipPath><clipPath id="freepik--clip-path-7--inject-43"><rect x="394.62" y="293.1" width="36.41" height="23.39" rx="1.77" transform="translate(54.84 -62.86) rotate(9.32)" style="fill:#008AAA;stroke:#263238;stroke-linecap:round;stroke-linejoin:round"></rect></clipPath><clipPath id="freepik--clip-path-8--inject-43"><polygon points="121.94 214.79 123.76 223.76 103.54 224.61 107.05 199.75 120.67 201.33 121.94 214.79" style="fill:#fff;stroke:#263238;stroke-linecap:round;stroke-linejoin:round"></polygon></clipPath></defs><g id="freepik--background-simple--inject-43"><path d="M151.67,237.67c0,43.61-55.65,82.84-77.09,121.87-33.46,60.91,28.67,105.81,116.3,105.81,133.51,0,290.1-172.41,252.75-308.91C428.47,101.05,373.75,48.79,297.45,39.86,139,21.33,79.16,96.69,79.16,152.3,79.16,210,151.67,200.54,151.67,237.67Z" style="fill:#008AAA"></path><path d="M151.67,237.67c0,43.61-55.65,82.84-77.09,121.87-33.46,60.91,28.67,105.81,116.3,105.81,133.51,0,290.1-172.41,252.75-308.91C428.47,101.05,373.75,48.79,297.45,39.86,139,21.33,79.16,96.69,79.16,152.3,79.16,210,151.67,200.54,151.67,237.67Z" style="fill:#fff;opacity:0.7000000000000001"></path></g></svg>